<svg width="676" height="478" viewBox="0 0 676 478" fill="none" xmlns="http://www.w3.org/2000/svg">
<path d="M54 325L1 363.5L35 312L41 297.5L59 231.5L77.5 163.5L84 155.5L119 117.5L171 65L227.5 10.5L308 45.5L493.5 132.5L523.5 144.5L542 157L558 168.5L572.5 171.5L588 179L593.5 185L603.5 189L619 196.5H633L640 191L650 185L652.5 171.5V157L650 144.5L638 126L623 101.5L616 96L611.5 86V76L628 53.5L652.5 21.5L671.5 2L660.5 53.5L628 82L650 109.5L660.5 133L667 151L675.5 168.5V181L671.5 189L660.5 202L650 214L641.5 221.5L626 226H611.5H590V232L593.5 240.5L597 250.5L599.5 268V300.5L603.5 314.5L623 337.5L630 355.5L638 372.5L641.5 396L650 426V477H609L623 432L606.5 399L590 380.5L558 369L528.5 360L517 351L481.5 314.5L478.5 300.5V283L475 264L466.5 253V268L469.5 277V287.5V297.5L463.5 311.5L335.5 307L332 294.5L319.5 311.5L306 328L282 343L270 360L301 389.5L306 387L326.5 360L332 356L362 364L349.5 387L342.5 389.5L332 393L315.5 420L311.5 424L301 420L231 393L223.5 384L214.5 348L217.5 335.5L228 322.5L237 297.5V290L234.5 259.5L223.5 220.5L220 287.5L190 283L182.5 277L173 268L158 252L153 247L149.5 241.5L145 240L143 238.5L138 235H133.5L127 238.5L133.5 241.5L143 249.5L153 259.5L163 272.5L173 287.5L182.5 297.5L190 307L194 319L198 335.5V348L190 351.5L186.5 356V367V378L176 384H163L153 374.5L138 371L113 374.5C106.5 370.833 93.4 363.2 93 362C92.5 360.5 91 360.5 86.5 357.5C82.5 354 85 356 74.5 356C66.1 356 71 357 74.5 357.5L16 387.5L14 384L56 327.5L54 325Z" fill="black" stroke="black"/>
</svg>
