<svg xmlns="http://www.w3.org/2000/svg" viewBox="0 0 380.09 290.18" aria-label="Gangadin and Company Legal Services" role="img">
<defs>
</defs>
<g>
<g>
<path class="cls-1" d="M8.16,245.82l24-28.5-.94-1.17L.7,235.34l-.7-.67c5.07-6.22,9.92-12.64,15.27-18.61a53.64,53.64,0,0,0,11.85-21.62c5.07-17.78,10.6-35.43,16.24-53a18.07,18.07,0,0,1,5.26-8.15c3.1-2.58,3.86-5.31,3.85-9q-.15-59-.06-118V0H330.77V6.56c0,45.49.09,91-.13,136.47,0,5.09,1.72,7.2,6.45,8.05,5.08.9,10.11,2.16,15.07,3.56,3.24.91,5.47-.06,8.19-1.93,6.83-4.69,8.63-9.5,6.26-18.25-3-10.92-9.77-18.29-16.81-26-8.21-9-8.26-8.93-.07-18s16.33-18,24.48-27.06c.86-1,1.61-2,2.41-3l1.43.8c-2.27,8-4.1,16.22-7,24-1,2.71-4.69,4.5-7.3,6.52-3.24,2.53-6.63,4.87-10.54,7.71,2.8,3.12,5,5.78,7.42,8.21,6.66,6.7,12.25,13.92,14.49,23.44,1.36,5.8,5.95,11.89,4.84,16.92s-7.86,8.54-11.52,13.2c-5.19,6.62-11.4,8.7-19.66,7.3-5.26-.9-10.81-.17-16.55-.17a10.25,10.25,0,0,0,.5,2.6c5.64,10.92,5.78,22.72,5.82,34.6,0,2.42.92,5.66,2.61,7.1,11.38,9.71,16.35,22.76,20.05,36.58a14.69,14.69,0,0,0,1.05,3.33c6.1,11.08,2.92,23.12,3.59,34.74.05.93-1.22,2.74-1.92,2.76-6.74.22-13.49.13-21.62.13,2.87-6.71,5.21-12.14,7.5-17.58.49-1.18,1.38-2.63,1.06-3.62-3.43-10.53-9-19.51-20.06-25.64v11.27c0,5.83-.06,11.67,0,17.5.05,3.76-1.6,5.6-5.44,5.34-1.16-.08-2.33,0-3.5,0H59.38c-6.94,0-7,0-7-7.2,0-10.33,0-20.66,0-31,0-6.47-5.3-9.7-11.16-7-10.68,5-21.38,9.87-32.07,14.81ZM65.82,117.33c2.42-1.76,3.94-2.7,5.26-3.85,17.59-15.33,35.21-30.61,52.66-46.09,2.91-2.57,5.26-3,8.9-1.49C172,81.78,211.54,97.41,251,113.23c21,8.42,43,14.42,62.61,26.22.74.45,1.79.37,3.42.67v-5.83q0-57,0-114c0-7.17-.46-7.6-7.7-7.6H73.81c-7.6,0-8.29.68-8.3,8.28q0,45,0,90C65.52,112.6,65.67,114.22,65.82,117.33ZM178,262.2l.94,1.44H263.3q23.49,0,47,0c6.37,0,6.67-.34,6.71-6.88,0-3.33,0-6.67,0-10,0-8.05.09-8.48-7.57-10.1a51.62,51.62,0,0,1-25.26-13.29,61.43,61.43,0,0,0-7.82-6.21,11.67,11.67,0,0,1-5.63-10.41c-.08-9.41-3.54-18-7.28-26.45.15,4.17,1,8.24,1.28,12.35.27,4.43-.07,8.91-.13,13.37-.06,4-2.16,4.74-5.86,4.59-21.63-.87-43.28-1.69-64.93-2-5.23-.09-7.87-1.19-7.11-6.78,0-.18-.41-.41-.73-.71-6.79,15.3-23.78,19.38-34.71,31.62,2.47,2.14,4.81,4.24,7.22,6.26,3.64,3.06,7.29,8.35,11,8.41,3.24.06,6.58-5.81,9.92-9,3.09-3,5.12-7.57,11-6,4.2,1.1,8.62,1.31,14.22,2.1-5.49,5.7-5.88,14.72-15.58,13.52a2.33,2.33,0,0,0-1.65,1C184.21,253.31,181.13,257.76,178,262.2ZM70,174.88c3.42,1.32,6.82,1.7,8.8,3.57,12.44,11.79,25.11,23.49,32.14,39.66a21.11,21.11,0,0,1,1.48,6.77c.07,1-1,3.05-1.55,3.08-5.31.24-4.72,3.68-4.64,7.36.17,7.56-6.67,12.09-13.44,9.19-4.28-1.83-8.5-4-13-5.24-3.24-.92-6.83-.82-10.26-.84-2.78,0-4.14,1.6-4.08,4.51.09,4.49,0,9,0,13.49,0,6.5.67,7.19,7.12,7.2q46.73,0,93.43,0c1.17,0,2.34-.28,5-.62-3.23-1.33-5-2.18-6.87-2.8-10.27-3.41-20.52-6.91-30.87-10-4.08-1.24-6.67-3.09-7.4-7.58-.69-4.25-2.47-8.34-3-12.6a16.3,16.3,0,0,1,1.13-8.44c2.44-5.46,5.92-10.46,8.3-15.93a16.88,16.88,0,0,0,.93-8.89c-1.41-9-3.35-18-5.09-26.93-.34-1.74-.71-3.47-1.06-5.21l-2.09.27c.48,10.94,1,21.87,1.45,33.19-4-.44-7.92-1.18-11.86-1.22A21.43,21.43,0,0,1,99,190.09c-4.49-4.43-9.75-8.1-14.21-12.56C80.58,173.3,76.05,172.71,70,174.88Z"></path>
</g>
</g>
</svg>